<?xml version="1.0" encoding="UTF-8"?>
<svg id="Layer_1" xmlns="http://www.w3.org/2000/svg" viewBox="0 0 32 32">
  <path id="rect2080" d="M18.4-.1L14.08-.02c-.79.01-1.45.68-1.47,1.47l-.19,10.09-5.89.11c-1.28.02-1.96,1.58-1.06,2.48l9.32,9.32c.55.55,1.47.53,2.04-.04l9.67-9.67c.93-.93.31-2.46-.97-2.44l-5.89.11.19-10.09c.01-.79-.62-1.43-1.41-1.41Z" style="fill: #fff;"/>
  <path d="M26.18,20.86v5.44H5.82v-5.44H0v7.86c0,1.71,1.52,3.18,3.3,3.18h25.41c1.78,0,3.3-1.47,3.3-3.18v-7.86h-5.82Z" style="fill: #999;"/>
</svg>